<svg xmlns="http://www.w3.org/2000/svg" xmlns:xlink="http://www.w3.org/1999/xlink" width="336" zoomAndPan="magnify" viewBox="0 0 252 143.999998" height="192" preserveAspectRatio="xMidYMid meet" version="1.0"><defs><clipPath id="4dc092400d"><path d="M 90 36.359375 L 162 36.359375 L 162 107 L 90 107 Z M 90 36.359375 " clip-rule="nonzero"/></clipPath></defs><g clip-path="url(#4dc092400d)"><path fill="#ff7f00" d="M 94.941406 105.988281 C 92.492188 107.609375 89.6875 105.734375 91.300781 103.148438 C 92.921875 100.554688 124.164062 55.339844 126.03125 52.894531 C 127.90625 50.449219 129.738281 49.871094 132.148438 50.300781 C 134.558594 50.730469 138.484375 51.484375 140.097656 55.050781 C 141.71875 58.617188 143.554688 62.640625 144.027344 63.402344 C 144.492188 64.15625 145.429688 63.507812 146.796875 62.753906 C 148.164062 62 155.113281 59.046875 157.59375 57.574219 C 160.074219 56.101562 162.308594 58.328125 160.835938 60.378906 C 159.363281 62.429688 148.742188 72.722656 147.269531 74.199219 C 145.792969 75.675781 142.191406 76.398438 139.957031 73.734375 C 138.773438 72.320312 137.730469 71.121094 137.011719 70.304688 C 136.738281 69.984375 136.386719 69.816406 135.96875 69.789062 C 135.554688 69.761719 135.179688 69.886719 134.871094 70.167969 C 122.78125 80.847656 107.019531 95.296875 94.941406 105.988281 Z M 142.835938 36.378906 C 146.613281 36.378906 149.671875 39.4375 149.671875 43.214844 C 149.671875 46.992188 146.613281 50.054688 142.835938 50.054688 C 139.054688 50.054688 135.996094 46.992188 135.996094 43.214844 C 135.996094 39.4375 139.054688 36.378906 142.835938 36.378906 Z M 136.992188 74.871094 C 138.859375 76.90625 140.804688 79.042969 141.648438 80.023438 C 143.523438 82.179688 143.808594 84.414062 141.507812 86.570312 C 139.203125 88.726562 129.773438 95.355469 126.03125 97.800781 C 122.289062 100.246094 119.335938 98.449219 121.421875 96.003906 C 123.507812 93.554688 127.398438 88.875 128.976562 86.929688 C 129.683594 86.070312 128.820312 84.878906 127.40625 83.660156 C 127.050781 83.355469 126.863281 82.957031 126.863281 82.484375 C 126.863281 82.019531 127.039062 81.609375 127.390625 81.300781 L 134.792969 74.75 C 135.441406 74.195312 136.414062 74.242188 136.992188 74.871094 Z M 119.292969 52.328125 C 118.546875 52.570312 117.769531 52.824219 116.960938 53.105469 C 110.488281 55.332031 101.707031 58.792969 98.753906 60.082031 C 95.800781 61.378906 97.097656 65.050781 100.121094 64.472656 C 101.621094 64.183594 108.8125 62.980469 115.675781 61.839844 C 116.121094 61.765625 116.472656 61.535156 116.71875 61.160156 C 118.332031 58.75 119.8125 56.550781 121.070312 54.691406 C 121.449219 54.125 121.429688 53.421875 121.027344 52.878906 C 120.617188 52.335938 119.941406 52.125 119.292969 52.328125 Z M 119.292969 52.328125 " fill-opacity="1" fill-rule="evenodd"/></g></svg>