<svg xmlns="http://www.w3.org/2000/svg" xmlns:xlink="http://www.w3.org/1999/xlink" width="1123" zoomAndPan="magnify" viewBox="0 0 842.25 595.499986" height="794" preserveAspectRatio="xMidYMid meet" version="1.0"><defs><g/><clipPath id="9137bab104"><path d="M 237.46875 138 L 367.921875 138 L 367.921875 280.351562 L 237.46875 280.351562 Z M 237.46875 138 " clip-rule="nonzero"/></clipPath><clipPath id="f5cc272e54"><path d="M 244.726562 138.226562 L 361.175781 138.226562 C 364.902344 138.226562 367.921875 141.246094 367.921875 144.972656 L 367.921875 273.558594 C 367.921875 277.285156 364.902344 280.304688 361.175781 280.304688 L 244.726562 280.304688 C 241 280.304688 237.976562 277.285156 237.976562 273.558594 L 237.976562 144.972656 C 237.976562 141.246094 241 138.226562 244.726562 138.226562 Z M 244.726562 138.226562 " clip-rule="nonzero"/></clipPath><clipPath id="e856f2c60a"><path d="M 0.882812 0.00390625 L 130.921875 0.00390625 L 130.921875 142.351562 L 0.882812 142.351562 Z M 0.882812 0.00390625 " clip-rule="nonzero"/></clipPath><clipPath id="aeb3c8e39d"><path d="M 7.726562 0.226562 L 124.175781 0.226562 C 127.902344 0.226562 130.921875 3.246094 130.921875 6.972656 L 130.921875 135.558594 C 130.921875 139.285156 127.902344 142.304688 124.175781 142.304688 L 7.726562 142.304688 C 4 142.304688 0.976562 139.285156 0.976562 135.558594 L 0.976562 6.972656 C 0.976562 3.246094 4 0.226562 7.726562 0.226562 Z M 7.726562 0.226562 " clip-rule="nonzero"/></clipPath><clipPath id="a74e5cd283"><rect x="0" width="131" y="0" height="143"/></clipPath><clipPath id="1dcb63858e"><path d="M 0.253906 0.609375 L 404 0.609375 L 404 397.453125 L 0.253906 397.453125 Z M 0.253906 0.609375 " clip-rule="nonzero"/></clipPath><clipPath id="22547c554d"><rect x="0" width="404" y="0" height="398"/></clipPath><clipPath id="fbf95a9367"><path d="M 207 108.789062 L 389 108.789062 L 389 290 L 207 290 Z M 207 108.789062 " clip-rule="nonzero"/></clipPath><clipPath id="22ceb95370"><path d="M 405 146 L 805.695312 146 L 805.695312 264 L 405 264 Z M 405 146 " clip-rule="nonzero"/></clipPath><clipPath id="248b6c0783"><path d="M 226 0.160156 L 312 0.160156 L 312 117 L 226 117 Z M 226 0.160156 " clip-rule="nonzero"/></clipPath><clipPath id="862fa5d406"><path d="M 370 46 L 400.695312 46 L 400.695312 89 L 370 89 Z M 370 46 " clip-rule="nonzero"/></clipPath><clipPath id="e53a309b2c"><rect x="0" width="401" y="0" height="118"/></clipPath><clipPath id="32858aaddb"><rect x="0" width="806" y="0" height="398"/></clipPath></defs><g transform="matrix(1, 0, 0, 1, 29, 97)"><g clip-path="url(#32858aaddb)"><g clip-path="url(#9137bab104)"><g clip-path="url(#f5cc272e54)"><g transform="matrix(1, 0, 0, 1, 237, 138)"><g clip-path="url(#a74e5cd283)"><g clip-path="url(#e856f2c60a)"><g clip-path="url(#aeb3c8e39d)"><path fill="#ff7f00" d="M 0.976562 0.226562 L 130.921875 0.226562 L 130.921875 142.351562 L 0.976562 142.351562 Z M 0.976562 0.226562 " fill-opacity="1" fill-rule="nonzero"/></g></g></g></g></g></g><g clip-path="url(#1dcb63858e)"><g><g clip-path="url(#22547c554d)"><g fill="#ffffff" fill-opacity="1"><g transform="translate(1.903242, 293.553301)"><g><path d="M 13.375 0 L 13.375 -191.078125 L 116.828125 -191.078125 C 133.753906 -191.078125 148.265625 -188.164062 160.359375 -182.34375 C 172.460938 -176.519531 181.789062 -168.285156 188.34375 -157.640625 C 194.894531 -146.992188 198.171875 -134.207031 198.171875 -119.28125 C 198.171875 -107.457031 196.078125 -96.90625 191.890625 -87.625 C 187.710938 -78.34375 181.617188 -70.515625 173.609375 -64.140625 L 202.265625 0 L 119.28125 0 L 101.265625 -47.5 L 90.078125 -47.5 L 90.078125 0 Z M 88.984375 -100.453125 L 102.09375 -100.453125 C 107.914062 -100.453125 112.460938 -101.90625 115.734375 -104.8125 C 119.015625 -107.726562 120.65625 -112.007812 120.65625 -117.65625 C 120.65625 -123.476562 119.015625 -127.753906 115.734375 -130.484375 C 112.460938 -133.210938 107.914062 -134.578125 102.09375 -134.578125 L 88.984375 -134.578125 Z M 88.984375 -100.453125 "/></g></g></g><g fill="#ff7f00" fill-opacity="1"><g transform="translate(203.121084, 293.553301)"><g><path d="M 13.375 0 L 13.375 -191.078125 L 131.84375 -191.078125 C 150.945312 -191.078125 165.910156 -186.617188 176.734375 -177.703125 C 187.566406 -168.785156 192.984375 -156.410156 192.984375 -140.578125 C 192.984375 -130.566406 190.84375 -121.738281 186.5625 -114.09375 C 182.289062 -106.457031 176.242188 -100.546875 168.421875 -96.359375 C 177.515625 -92.359375 184.742188 -86.398438 190.109375 -78.484375 C 195.484375 -70.566406 198.171875 -61.328125 198.171875 -50.765625 C 198.171875 -40.578125 195.625 -31.660156 190.53125 -24.015625 C 185.4375 -16.378906 178.25 -10.46875 168.96875 -6.28125 C 159.6875 -2.09375 148.769531 0 136.21875 0 Z M 87.078125 -48.59375 L 107 -48.59375 C 116.832031 -48.59375 121.75 -52.867188 121.75 -61.421875 C 121.75 -70.148438 116.832031 -74.515625 107 -74.515625 L 87.078125 -74.515625 Z M 87.078125 -118.203125 L 105.09375 -118.203125 C 114.738281 -118.203125 119.5625 -122.382812 119.5625 -130.75 C 119.5625 -139.125 114.738281 -143.3125 105.09375 -143.3125 L 87.078125 -143.3125 Z M 87.078125 -118.203125 "/></g></g></g></g></g></g><g clip-path="url(#fbf95a9367)"><path fill="#1c2120" d="M 218.015625 287.972656 C 211.722656 292.144531 204.503906 287.320312 208.65625 280.664062 C 212.828125 273.988281 293.210938 157.640625 298.019531 151.347656 C 302.84375 145.054688 307.558594 143.566406 313.761719 144.671875 C 319.964844 145.78125 330.066406 147.71875 334.21875 156.898438 C 338.390625 166.074219 343.105469 176.429688 344.320312 178.390625 C 345.519531 180.332031 347.929688 178.660156 351.449219 176.722656 C 354.96875 174.78125 372.851562 167.179688 379.234375 163.390625 C 385.621094 159.601562 391.367188 165.332031 387.578125 170.609375 C 383.789062 175.886719 356.457031 202.367188 352.664062 206.175781 C 348.875 209.964844 339.605469 211.835938 333.855469 204.976562 C 330.808594 201.332031 328.125 198.25 326.277344 196.144531 C 325.566406 195.328125 324.660156 194.894531 323.589844 194.820312 C 322.519531 194.75 321.558594 195.074219 320.761719 195.800781 C 289.65625 223.277344 249.101562 260.460938 218.015625 287.972656 Z M 341.257812 108.851562 C 350.976562 108.851562 358.847656 116.722656 358.847656 126.445312 C 358.847656 136.167969 350.976562 144.039062 341.257812 144.039062 C 331.535156 144.039062 323.664062 136.167969 323.664062 126.445312 C 323.664062 116.722656 331.535156 108.851562 341.257812 108.851562 Z M 326.222656 207.898438 C 331.027344 213.140625 336.03125 218.636719 338.210938 221.15625 C 343.035156 226.707031 343.757812 232.457031 337.847656 238.003906 C 331.917969 243.554688 307.648438 260.605469 298.019531 266.898438 C 288.386719 273.191406 280.789062 268.566406 286.15625 262.273438 C 291.523438 255.980469 301.535156 243.9375 305.597656 238.929688 C 307.414062 236.71875 305.199219 233.652344 301.554688 230.515625 C 300.648438 229.734375 300.160156 228.703125 300.160156 227.488281 C 300.160156 226.289062 300.613281 225.238281 301.519531 224.4375 L 320.5625 207.589844 C 322.230469 206.15625 324.734375 206.285156 326.222656 207.898438 Z M 280.679688 149.898438 C 278.757812 150.511719 276.761719 151.167969 274.675781 151.890625 C 258.027344 157.621094 235.425781 166.527344 227.828125 169.847656 C 220.230469 173.183594 223.566406 182.632812 231.347656 181.148438 C 235.210938 180.402344 253.710938 177.300781 271.375 174.363281 C 272.515625 174.183594 273.425781 173.582031 274.058594 172.621094 C 278.210938 166.417969 282.019531 160.761719 285.25 155.972656 C 286.230469 154.519531 286.175781 152.707031 285.140625 151.3125 C 284.089844 149.914062 282.347656 149.371094 280.679688 149.898438 Z M 280.679688 149.898438 " fill-opacity="1" fill-rule="evenodd"/></g><g clip-path="url(#22ceb95370)"><g transform="matrix(1, 0, 0, 1, 405, 146)"><g clip-path="url(#e53a309b2c)"><g fill="#ff7f00" fill-opacity="1"><g transform="translate(0.218167, 76.699068)"><g><path d="M 59.046875 -63.203125 C 60.085938 -62.515625 61.070312 -61.550781 62 -60.3125 C 62.9375 -59.082031 63.644531 -57.535156 64.125 -55.671875 C 64.601562 -53.804688 64.722656 -51.539062 64.484375 -48.875 C 64.242188 -46.207031 63.492188 -43.070312 62.234375 -39.46875 C 60.285156 -34.050781 57.96875 -29.128906 55.28125 -24.703125 C 52.59375 -20.285156 49.625 -16.539062 46.375 -13.46875 C 43.726562 -10.945312 41.003906 -8.992188 38.203125 -7.609375 C 35.410156 -6.222656 32.753906 -5.53125 30.234375 -5.53125 C 29.972656 -5.53125 29.710938 -5.550781 29.453125 -5.59375 C 25.515625 -5.851562 22.71875 -7.71875 21.0625 -11.1875 C 20.03125 -6.71875 19.003906 -2.328125 17.984375 1.984375 C 16.960938 6.296875 16.019531 10.378906 15.15625 14.234375 C 14.289062 18.097656 13.550781 21.554688 12.9375 24.609375 C 12.332031 27.671875 11.898438 30.15625 11.640625 32.0625 C 11.722656 31.882812 11.8125 31.6875 11.90625 31.46875 C 12.03125 31.164062 12.253906 30.945312 12.578125 30.8125 C 12.910156 30.6875 13.226562 30.691406 13.53125 30.828125 C 13.832031 30.992188 14.046875 31.238281 14.171875 31.5625 C 14.304688 31.894531 14.304688 32.210938 14.171875 32.515625 C 13.390625 34.203125 12.738281 35.445312 12.21875 36.25 C 11.707031 37.050781 11.144531 37.453125 10.53125 37.453125 C 10.363281 37.453125 10.191406 37.410156 10.015625 37.328125 C 9.578125 37.203125 9.257812 36.898438 9.0625 36.421875 C 8.875 35.941406 8.820312 35.125 8.90625 33.96875 C 9 32.820312 9.238281 31.164062 9.625 29 C 10.269531 25.0625 11.421875 19.40625 13.078125 12.03125 C 14.109375 7.476562 15.242188 2.601562 16.484375 -2.59375 C 17.722656 -7.800781 18.988281 -13.101562 20.28125 -18.5 C 21.582031 -23.894531 22.863281 -29.148438 24.125 -34.265625 C 25.34375 -39.210938 26.46875 -43.84375 27.5 -48.15625 C 28.539062 -52.46875 29.453125 -56.25 30.234375 -59.5 C 27.421875 -58.289062 24.691406 -56.882812 22.046875 -55.28125 C 19.398438 -53.675781 17.035156 -51.960938 14.953125 -50.140625 C 12.097656 -47.628906 9.984375 -45.273438 8.609375 -43.078125 C 7.242188 -40.890625 6.390625 -38.851562 6.046875 -36.96875 C 5.703125 -35.082031 5.671875 -33.410156 5.953125 -31.953125 C 6.234375 -30.503906 6.613281 -29.304688 7.09375 -28.359375 C 7.257812 -28.046875 7.285156 -27.726562 7.171875 -27.40625 C 7.066406 -27.082031 6.863281 -26.832031 6.5625 -26.65625 C 6.257812 -26.53125 5.945312 -26.519531 5.625 -26.625 C 5.300781 -26.738281 5.050781 -26.945312 4.875 -27.25 C 2.96875 -31.0625 2.738281 -35.132812 4.1875 -39.46875 C 5.644531 -43.8125 8.671875 -48 13.265625 -52.03125 C 15.734375 -54.15625 18.472656 -56.113281 21.484375 -57.90625 C 24.503906 -59.707031 27.660156 -61.238281 30.953125 -62.5 C 31.128906 -63.363281 31.300781 -64.144531 31.46875 -64.84375 C 31.519531 -65.144531 31.695312 -65.390625 32 -65.578125 C 32.300781 -65.773438 32.625 -65.832031 32.96875 -65.75 C 33.269531 -65.707031 33.519531 -65.53125 33.71875 -65.21875 C 33.914062 -64.914062 33.96875 -64.59375 33.875 -64.25 C 33.875 -64.125 33.851562 -63.992188 33.8125 -63.859375 C 33.769531 -63.734375 33.75 -63.625 33.75 -63.53125 C 34.832031 -63.882812 35.914062 -64.210938 37 -64.515625 C 41.644531 -65.765625 45.863281 -66.28125 49.65625 -66.0625 C 53.445312 -65.851562 56.578125 -64.898438 59.046875 -63.203125 Z M 59.828125 -40.3125 C 60.472656 -42.09375 61.015625 -43.96875 61.453125 -45.9375 C 61.890625 -47.914062 62.109375 -49.859375 62.109375 -51.765625 C 62.109375 -53.671875 61.757812 -55.4375 61.0625 -57.0625 C 60.375 -58.6875 59.226562 -60.0625 57.625 -61.1875 C 55.5 -62.625 52.691406 -63.414062 49.203125 -63.5625 C 45.710938 -63.71875 41.863281 -63.234375 37.65625 -62.109375 C 36.132812 -61.671875 34.59375 -61.171875 33.03125 -60.609375 C 32.300781 -57.273438 31.367188 -53.296875 30.234375 -48.671875 C 29.109375 -44.054688 27.894531 -39.0625 26.59375 -33.6875 C 25.863281 -30.820312 25.117188 -27.835938 24.359375 -24.734375 C 23.597656 -21.640625 22.828125 -18.46875 22.046875 -15.21875 C 22.347656 -15.039062 22.539062 -14.78125 22.625 -14.4375 C 23.5 -10.445312 25.820312 -8.320312 29.59375 -8.0625 C 31.800781 -7.9375 34.226562 -8.5 36.875 -9.75 C 39.519531 -11.007812 42.117188 -12.851562 44.671875 -15.28125 C 46.109375 -16.625 47.703125 -18.410156 49.453125 -20.640625 C 51.210938 -22.878906 52.988281 -25.613281 54.78125 -28.84375 C 56.582031 -32.070312 58.265625 -35.894531 59.828125 -40.3125 Z M 59.828125 -40.3125 "/></g></g></g><g fill="#ff7f00" fill-opacity="1"><g transform="translate(57.576672, 76.699068)"><g><path d="M 21.984375 -14.5 C 22.285156 -14.320312 22.457031 -14.0625 22.5 -13.71875 C 22.539062 -13.375 22.476562 -13.070312 22.3125 -12.8125 C 19.75 -9.257812 17.40625 -6.320312 15.28125 -4 C 13.15625 -1.675781 11.03125 0.238281 8.90625 1.75 C 7.300781 2.882812 5.71875 3.453125 4.15625 3.453125 C 2.945312 3.453125 1.882812 3.125 0.96875 2.46875 C 0.363281 2.039062 -0.226562 1.269531 -0.8125 0.15625 C -1.394531 -0.945312 -1.707031 -2.546875 -1.75 -4.640625 C -1.800781 -6.742188 -1.28125 -9.507812 -0.1875 -12.9375 C -0.1875 -12.9375 -0.1875 -12.957031 -0.1875 -13 C 1.101562 -17.164062 2.625 -20.34375 4.375 -22.53125 C 6.132812 -24.71875 7.644531 -25.832031 8.90625 -25.875 C 9.90625 -25.925781 10.554688 -25.492188 10.859375 -24.578125 C 11.335938 -23.328125 10.773438 -21.539062 9.171875 -19.21875 C 7.566406 -16.894531 5.203125 -14.429688 2.078125 -11.828125 C 1.128906 -8.796875 0.675781 -6.421875 0.71875 -4.703125 C 0.757812 -2.992188 0.992188 -1.757812 1.421875 -1 C 1.859375 -0.25 2.207031 0.234375 2.46875 0.453125 C 3.769531 1.410156 5.441406 1.148438 7.484375 -0.328125 C 9.472656 -1.710938 11.484375 -3.519531 13.515625 -5.75 C 15.554688 -7.988281 17.789062 -10.816406 20.21875 -14.234375 C 20.4375 -14.492188 20.71875 -14.65625 21.0625 -14.71875 C 21.414062 -14.789062 21.722656 -14.71875 21.984375 -14.5 Z M 8.453125 -23.15625 C 7.972656 -22.851562 7.320312 -22.210938 6.5 -21.234375 C 5.675781 -20.253906 4.832031 -18.832031 3.96875 -16.96875 C 5.53125 -18.488281 6.632812 -19.78125 7.28125 -20.84375 C 7.9375 -21.90625 8.328125 -22.675781 8.453125 -23.15625 Z M 8.453125 -23.15625 "/></g></g></g><g fill="#ff7f00" fill-opacity="1"><g transform="translate(76.501072, 76.699068)"><g><path d="M 28.546875 -14.765625 C 28.847656 -14.585938 29.0625 -14.335938 29.1875 -14.015625 C 29.320312 -13.691406 29.304688 -13.378906 29.140625 -13.078125 C 28.304688 -11.296875 27.296875 -9.296875 26.109375 -7.078125 C 24.921875 -4.867188 23.65625 -2.648438 22.3125 -0.421875 C 20.96875 1.804688 19.597656 3.84375 18.203125 5.6875 C 16.816406 7.53125 15.472656 9.023438 14.171875 10.171875 C 12.867188 11.328125 11.703125 11.90625 10.671875 11.90625 C 10.359375 11.90625 10.070312 11.835938 9.8125 11.703125 C 8.90625 11.359375 8.3125 10.535156 8.03125 9.234375 C 7.75 7.929688 7.78125 6.066406 8.125 3.640625 C 8.738281 -0.734375 10.34375 -6.929688 12.9375 -14.953125 C 12.894531 -14.953125 12.863281 -14.941406 12.84375 -14.921875 C 12.820312 -14.898438 12.789062 -14.890625 12.75 -14.890625 C 11.882812 -14.285156 10.84375 -13.65625 9.625 -13 C 8.40625 -12.351562 7.144531 -11.921875 5.84375 -11.703125 C 4.550781 -11.484375 3.316406 -11.765625 2.140625 -12.546875 C 0.492188 -13.722656 -0.347656 -15.347656 -0.390625 -17.421875 C -0.429688 -19.503906 0.347656 -21.78125 1.953125 -24.25 C 2.472656 -25.03125 3.15625 -25.894531 4 -26.84375 C 4.84375 -27.800781 5.726562 -28.539062 6.65625 -29.0625 C 7.59375 -29.582031 8.429688 -29.609375 9.171875 -29.140625 C 9.554688 -28.921875 9.847656 -28.550781 10.046875 -28.03125 C 10.242188 -27.507812 10.234375 -26.707031 10.015625 -25.625 C 9.796875 -24.539062 9.273438 -23.085938 8.453125 -21.265625 C 7.628906 -19.441406 6.394531 -17.078125 4.75 -14.171875 C 5.75 -14.046875 6.863281 -14.328125 8.09375 -15.015625 C 9.332031 -15.710938 10.425781 -16.363281 11.375 -16.96875 C 12.289062 -17.582031 13.050781 -18.03125 13.65625 -18.3125 C 14.257812 -18.59375 14.820312 -18.535156 15.34375 -18.140625 C 15.820312 -17.753906 16.015625 -17.28125 15.921875 -16.71875 C 15.835938 -16.15625 15.753906 -15.71875 15.671875 -15.40625 C 14.242188 -10.90625 13.140625 -7.15625 12.359375 -4.15625 C 11.578125 -1.164062 11.046875 1.234375 10.765625 3.046875 C 10.484375 4.867188 10.34375 6.234375 10.34375 7.140625 C 10.34375 8.054688 10.40625 8.65625 10.53125 8.9375 C 10.664062 9.21875 10.734375 9.378906 10.734375 9.421875 C 11.253906 9.515625 12.328125 8.679688 13.953125 6.921875 C 15.578125 5.171875 17.515625 2.53125 19.765625 -1 C 22.023438 -4.539062 24.390625 -8.910156 26.859375 -14.109375 C 27.035156 -14.453125 27.285156 -14.675781 27.609375 -14.78125 C 27.929688 -14.894531 28.242188 -14.890625 28.546875 -14.765625 Z M 2.34375 -19.1875 C 2.082031 -18.269531 2.003906 -17.519531 2.109375 -16.9375 C 2.222656 -16.351562 2.382812 -15.890625 2.59375 -15.546875 C 3.988281 -17.972656 5.039062 -19.941406 5.75 -21.453125 C 6.46875 -22.972656 6.957031 -24.144531 7.21875 -24.96875 C 7.476562 -25.789062 7.628906 -26.378906 7.671875 -26.734375 C 7.191406 -26.472656 6.59375 -25.972656 5.875 -25.234375 C 5.164062 -24.492188 4.472656 -23.601562 3.796875 -22.5625 C 3.128906 -21.519531 2.644531 -20.394531 2.34375 -19.1875 Z M 2.34375 -19.1875 "/></g></g></g><g fill="#ff7f00" fill-opacity="1"><g transform="translate(102.058774, 76.699068)"><g><path d="M 28.9375 -14.890625 C 29.195312 -14.671875 29.347656 -14.390625 29.390625 -14.046875 C 29.429688 -13.703125 29.320312 -13.398438 29.0625 -13.140625 C 27.8125 -11.660156 26.425781 -10.03125 24.90625 -8.25 C 23.382812 -6.476562 21.898438 -4.742188 20.453125 -3.046875 C 19.003906 -1.359375 17.757812 0.0976562 16.71875 1.328125 C 15.675781 2.566406 14.976562 3.40625 14.625 3.84375 C 13.894531 4.789062 13.179688 5.722656 12.484375 6.640625 C 13.046875 9.148438 13.097656 11.519531 12.640625 13.75 C 12.191406 15.988281 11.4375 17.972656 10.375 19.703125 C 9.3125 21.441406 8.191406 22.785156 7.015625 23.734375 C 5.804688 24.773438 4.679688 25.296875 3.640625 25.296875 C 2.992188 25.296875 2.453125 25.078125 2.015625 24.640625 C 1.273438 23.953125 1.023438 22.925781 1.265625 21.5625 C 1.503906 20.195312 2.054688 18.644531 2.921875 16.90625 C 3.796875 15.175781 4.835938 13.378906 6.046875 11.515625 C 7.265625 9.648438 8.5 7.847656 9.75 6.109375 C 9.53125 5.328125 9.226562 4.535156 8.84375 3.734375 C 8.457031 2.929688 8.003906 2.117188 7.484375 1.296875 C 5.703125 -1.390625 4.191406 -3.910156 2.953125 -6.265625 C 1.722656 -8.628906 1.148438 -10.789062 1.234375 -12.75 C 1.453125 -16.34375 3.054688 -19.03125 6.046875 -20.8125 C 7.265625 -21.550781 8.546875 -21.984375 9.890625 -22.109375 C 11.234375 -22.242188 12.46875 -22.050781 13.59375 -21.53125 C 13.894531 -21.351562 14.097656 -21.101562 14.203125 -20.78125 C 14.316406 -20.457031 14.304688 -20.140625 14.171875 -19.828125 C 14.003906 -19.523438 13.753906 -19.316406 13.421875 -19.203125 C 13.097656 -19.097656 12.785156 -19.113281 12.484375 -19.25 C 10.921875 -19.988281 9.207031 -19.789062 7.34375 -18.65625 C 5.09375 -17.3125 3.898438 -15.296875 3.765625 -12.609375 C 3.679688 -11.003906 4.222656 -9.117188 5.390625 -6.953125 C 6.566406 -4.785156 7.957031 -2.507812 9.5625 -0.125 C 10.382812 1.125 11.054688 2.398438 11.578125 3.703125 C 11.921875 3.273438 12.289062 2.800781 12.6875 2.28125 C 13.03125 1.84375 13.734375 1 14.796875 -0.25 C 15.859375 -1.507812 17.101562 -2.984375 18.53125 -4.671875 C 19.96875 -6.367188 21.453125 -8.101562 22.984375 -9.875 C 24.523438 -11.65625 25.925781 -13.285156 27.1875 -14.765625 C 27.40625 -15.023438 27.6875 -15.175781 28.03125 -15.21875 C 28.375 -15.257812 28.675781 -15.148438 28.9375 -14.890625 Z M 7.796875 19.125 C 8.109375 18.644531 8.476562 17.957031 8.90625 17.0625 C 9.34375 16.175781 9.722656 15.09375 10.046875 13.8125 C 10.367188 12.539062 10.46875 11.125 10.34375 9.5625 C 8.34375 12.375 6.851562 14.710938 5.875 16.578125 C 4.90625 18.441406 4.28125 19.863281 4 20.84375 C 3.71875 21.820312 3.617188 22.460938 3.703125 22.765625 C 4.003906 22.765625 4.546875 22.476562 5.328125 21.90625 C 6.109375 21.34375 6.929688 20.414062 7.796875 19.125 Z M 7.796875 19.125 "/></g></g></g><g fill="#ff7f00" fill-opacity="1"><g transform="translate(128.266801, 76.699068)"><g><path d="M 23.546875 -14.171875 C 23.847656 -13.960938 24.019531 -13.679688 24.0625 -13.328125 C 24.101562 -12.984375 24.015625 -12.679688 23.796875 -12.421875 C 22.671875 -10.992188 21.359375 -9.710938 19.859375 -8.578125 C 18.367188 -7.453125 16.8125 -6.617188 15.1875 -6.078125 C 13.5625 -5.535156 11.988281 -5.4375 10.46875 -5.78125 C 9.863281 -4.269531 9.007812 -3.101562 7.90625 -2.28125 C 6.800781 -1.457031 5.679688 -1.046875 4.546875 -1.046875 C 4.546875 -1.046875 4.535156 -1.046875 4.515625 -1.046875 C 4.492188 -1.046875 4.484375 -1.046875 4.484375 -1.046875 C 3.316406 -1.085938 2.285156 -1.484375 1.390625 -2.234375 C 0.503906 -2.992188 -0.109375 -4.046875 -0.453125 -5.390625 C -0.847656 -6.910156 -0.914062 -8.351562 -0.65625 -9.71875 C -0.394531 -11.082031 0.0820312 -12.285156 0.78125 -13.328125 C 1.476562 -14.367188 2.257812 -15.171875 3.125 -15.734375 C 3.425781 -15.953125 3.769531 -16 4.15625 -15.875 C 4.550781 -16.820312 5.101562 -17.554688 5.8125 -18.078125 C 6.53125 -18.597656 7.28125 -18.789062 8.0625 -18.65625 C 8.539062 -18.570312 9.0625 -18.28125 9.625 -17.78125 C 10.1875 -17.28125 10.640625 -16.390625 10.984375 -15.109375 C 11.335938 -13.835938 11.445312 -11.96875 11.3125 -9.5 C 11.269531 -9.0625 11.207031 -8.625 11.125 -8.1875 C 12.289062 -7.976562 13.523438 -8.109375 14.828125 -8.578125 C 16.128906 -9.054688 17.382812 -9.78125 18.59375 -10.75 C 19.8125 -11.726562 20.875 -12.804688 21.78125 -13.984375 C 22 -14.242188 22.28125 -14.394531 22.625 -14.4375 C 22.976562 -14.476562 23.285156 -14.390625 23.546875 -14.171875 Z M 4.546875 -3.578125 C 5.109375 -3.578125 5.738281 -3.835938 6.4375 -4.359375 C 7.132812 -4.878906 7.695312 -5.660156 8.125 -6.703125 C 6.5625 -7.566406 5.441406 -8.5625 4.765625 -9.6875 C 4.097656 -10.8125 3.742188 -11.941406 3.703125 -13.078125 C 2.796875 -12.203125 2.203125 -11.09375 1.921875 -9.75 C 1.640625 -8.40625 1.648438 -7.191406 1.953125 -6.109375 C 2.078125 -5.628906 2.332031 -5.085938 2.71875 -4.484375 C 3.113281 -3.878906 3.722656 -3.578125 4.546875 -3.578125 Z M 8.78125 -9.625 C 8.863281 -11.351562 8.828125 -12.695312 8.671875 -13.65625 C 8.523438 -14.613281 8.34375 -15.265625 8.125 -15.609375 C 7.90625 -15.953125 7.753906 -16.144531 7.671875 -16.1875 C 7.628906 -16.1875 7.609375 -16.1875 7.609375 -16.1875 C 7.472656 -16.1875 7.273438 -16.054688 7.015625 -15.796875 C 6.765625 -15.535156 6.550781 -15.144531 6.375 -14.625 C 6.113281 -13.800781 6.132812 -12.898438 6.4375 -11.921875 C 6.738281 -10.953125 7.519531 -10.054688 8.78125 -9.234375 C 8.78125 -9.359375 8.78125 -9.488281 8.78125 -9.625 Z M 8.78125 -9.625 "/></g></g></g><g fill="#ff7f00" fill-opacity="1"><g transform="translate(149.077143, 76.699068)"><g><path d="M 26.203125 -14.5 C 26.503906 -14.320312 26.695312 -14.070312 26.78125 -13.75 C 26.875 -13.425781 26.832031 -13.113281 26.65625 -12.8125 C 24.625 -9.207031 22.796875 -6.441406 21.171875 -4.515625 C 19.546875 -2.585938 17.882812 -1.734375 16.1875 -1.953125 C 14.019531 -2.210938 12.3125 -4.550781 11.0625 -8.96875 C 10.625 -10.40625 10.238281 -11.4375 9.90625 -12.0625 C 9.582031 -12.6875 9.320312 -13.078125 9.125 -13.234375 C 8.9375 -13.390625 8.800781 -13.46875 8.71875 -13.46875 C 8.582031 -13.507812 8.316406 -13.375 7.921875 -13.0625 C 7.535156 -12.757812 6.972656 -12.085938 6.234375 -11.046875 C 5.503906 -10.015625 4.597656 -8.398438 3.515625 -6.203125 C 2.429688 -4.015625 1.109375 -1.015625 -0.453125 2.796875 C -0.671875 3.316406 -1.039062 3.578125 -1.5625 3.578125 C -1.6875 3.578125 -1.796875 3.554688 -1.890625 3.515625 C -2.617188 3.335938 -2.941406 2.878906 -2.859375 2.140625 C -2.640625 0.367188 -2.25 -1.6875 -1.6875 -4.03125 C -1.125 -6.375 -0.507812 -8.757812 0.15625 -11.1875 C 0.832031 -13.613281 1.453125 -15.78125 2.015625 -17.6875 C 2.148438 -18.125 2.269531 -18.523438 2.375 -18.890625 C 2.476562 -19.253906 2.578125 -19.613281 2.671875 -19.96875 C 2.796875 -20.3125 3.007812 -20.554688 3.3125 -20.703125 C 3.613281 -20.859375 3.921875 -20.894531 4.234375 -20.8125 C 4.578125 -20.726562 4.832031 -20.53125 5 -20.21875 C 5.175781 -19.914062 5.203125 -19.59375 5.078125 -19.25 C 4.984375 -18.90625 4.882812 -18.546875 4.78125 -18.171875 C 4.675781 -17.804688 4.554688 -17.40625 4.421875 -16.96875 C 4.117188 -15.84375 3.769531 -14.609375 3.375 -13.265625 C 2.988281 -11.921875 2.601562 -10.554688 2.21875 -9.171875 C 3.6875 -11.941406 4.941406 -13.78125 5.984375 -14.6875 C 7.023438 -15.601562 7.976562 -16.039062 8.84375 -16 C 10.0625 -15.914062 11.015625 -15.242188 11.703125 -13.984375 C 12.398438 -12.722656 12.988281 -11.269531 13.46875 -9.625 C 14.113281 -7.375 14.71875 -5.941406 15.28125 -5.328125 C 15.84375 -4.722656 16.253906 -4.421875 16.515625 -4.421875 C 17.078125 -4.335938 17.738281 -4.648438 18.5 -5.359375 C 19.257812 -6.078125 20.019531 -6.988281 20.78125 -8.09375 C 21.539062 -9.195312 22.253906 -10.289062 22.921875 -11.375 C 23.597656 -12.457031 24.109375 -13.347656 24.453125 -14.046875 C 24.628906 -14.347656 24.890625 -14.539062 25.234375 -14.625 C 25.578125 -14.71875 25.898438 -14.675781 26.203125 -14.5 Z M 26.203125 -14.5 "/></g></g></g><g fill="#ff7f00" fill-opacity="1"><g transform="translate(172.683881, 76.699068)"><g><path d="M 27.25 -14.4375 C 27.550781 -14.300781 27.753906 -14.070312 27.859375 -13.75 C 27.972656 -13.425781 27.960938 -13.113281 27.828125 -12.8125 C 27.003906 -11.125 26.101562 -9.429688 25.125 -7.734375 C 24.15625 -6.046875 23.140625 -4.492188 22.078125 -3.078125 C 21.015625 -1.671875 19.921875 -0.546875 18.796875 0.296875 C 17.671875 1.140625 16.539062 1.5625 15.40625 1.5625 C 15.195312 1.5625 14.960938 1.539062 14.703125 1.5 C 11.796875 0.9375 9.992188 -2.960938 9.296875 -10.203125 C 8.554688 -9.210938 7.695312 -8.097656 6.71875 -6.859375 C 5.75 -5.617188 4.722656 -4.394531 3.640625 -3.1875 C 3.460938 -3.007812 3.179688 -2.738281 2.796875 -2.375 C 2.410156 -2.007812 1.957031 -1.71875 1.4375 -1.5 C 0.914062 -1.28125 0.394531 -1.300781 -0.125 -1.5625 C -1.164062 -1.945312 -1.664062 -3.070312 -1.625 -4.9375 C -1.625 -6.019531 -1.414062 -7.363281 -1 -8.96875 C -0.59375 -10.570312 -0.0078125 -12.1875 0.75 -13.8125 C 1.507812 -15.445312 2.394531 -16.890625 3.40625 -18.140625 C 4.425781 -19.398438 5.566406 -20.25 6.828125 -20.6875 C 7.609375 -20.988281 8.5625 -21.039062 9.6875 -20.84375 C 10.8125 -20.644531 11.984375 -19.832031 13.203125 -18.40625 C 13.421875 -18.144531 13.519531 -17.835938 13.5 -17.484375 C 13.476562 -17.140625 13.335938 -16.859375 13.078125 -16.640625 C 12.816406 -16.429688 12.507812 -16.335938 12.15625 -16.359375 C 11.8125 -16.378906 11.53125 -16.519531 11.3125 -16.78125 C 10.269531 -17.988281 9.367188 -18.5625 8.609375 -18.5 C 7.859375 -18.4375 7.222656 -18.207031 6.703125 -17.8125 C 5.742188 -17.125 4.875 -16.128906 4.09375 -14.828125 C 3.3125 -13.523438 2.660156 -12.15625 2.140625 -10.71875 C 1.617188 -9.289062 1.25 -7.957031 1.03125 -6.71875 C 0.820312 -5.488281 0.757812 -4.59375 0.84375 -4.03125 C 0.976562 -4.113281 1.117188 -4.21875 1.265625 -4.34375 C 1.421875 -4.476562 1.582031 -4.65625 1.75 -4.875 C 3.050781 -6.300781 4.242188 -7.71875 5.328125 -9.125 C 6.410156 -10.539062 7.34375 -11.789062 8.125 -12.875 C 8.34375 -13.175781 8.550781 -13.46875 8.75 -13.75 C 8.945312 -14.03125 9.128906 -14.28125 9.296875 -14.5 C 9.640625 -14.9375 10.097656 -15.066406 10.671875 -14.890625 C 11.234375 -14.765625 11.535156 -14.394531 11.578125 -13.78125 C 11.703125 -10.96875 11.925781 -8.703125 12.25 -6.984375 C 12.582031 -5.273438 12.941406 -4 13.328125 -3.15625 C 13.722656 -2.3125 14.09375 -1.734375 14.4375 -1.421875 C 14.78125 -1.117188 15.039062 -0.96875 15.21875 -0.96875 C 16.039062 -0.800781 17.363281 -1.648438 19.1875 -3.515625 C 21.007812 -5.378906 23.132812 -8.828125 25.5625 -13.859375 C 25.726562 -14.203125 25.972656 -14.425781 26.296875 -14.53125 C 26.628906 -14.644531 26.945312 -14.613281 27.25 -14.4375 Z M 27.25 -14.4375 "/></g></g></g><g fill="#ff7f00" fill-opacity="1"><g transform="translate(196.875909, 76.699068)"><g><path d="M 19.125 -60.9375 C 19.6875 -60.113281 19.695312 -58.441406 19.15625 -55.921875 C 18.613281 -53.410156 17.492188 -50.300781 15.796875 -46.59375 C 14.109375 -42.882812 11.859375 -38.773438 9.046875 -34.265625 C 8.992188 -34.222656 8.945312 -34.179688 8.90625 -34.140625 C 7.78125 -29.546875 6.664062 -24.863281 5.5625 -20.09375 C 4.457031 -15.320312 3.40625 -10.640625 2.40625 -6.046875 C 1.40625 -1.453125 0.492188 2.867188 -0.328125 6.921875 C -1.148438 10.972656 -1.851562 14.582031 -2.4375 17.75 C -3.019531 20.914062 -3.441406 23.453125 -3.703125 25.359375 C -3.660156 25.359375 -3.617188 25.359375 -3.578125 25.359375 C -3.234375 25.492188 -2.984375 25.710938 -2.828125 26.015625 C -2.671875 26.316406 -2.660156 26.640625 -2.796875 26.984375 C -3.097656 27.804688 -3.410156 28.550781 -3.734375 29.21875 C -4.066406 29.894531 -4.515625 30.234375 -5.078125 30.234375 C -5.203125 30.234375 -5.351562 30.210938 -5.53125 30.171875 C -5.914062 30.046875 -6.195312 29.773438 -6.375 29.359375 C -6.550781 28.953125 -6.570312 28.128906 -6.4375 26.890625 C -6.3125 25.648438 -6.03125 23.753906 -5.59375 21.203125 C -4.8125 16.515625 -3.640625 10.398438 -2.078125 2.859375 C -0.953125 -2.429688 0.222656 -7.816406 1.453125 -13.296875 C 2.691406 -18.785156 3.914062 -24.078125 5.125 -29.171875 C 6.34375 -34.265625 7.519531 -38.890625 8.65625 -43.046875 C 8.863281 -43.867188 9.1875 -45.015625 9.625 -46.484375 C 10.0625 -47.960938 10.5625 -49.546875 11.125 -51.234375 C 11.6875 -52.929688 12.3125 -54.5625 13 -56.125 C 13.695312 -57.6875 14.414062 -58.972656 15.15625 -59.984375 C 15.894531 -61.003906 16.628906 -61.582031 17.359375 -61.71875 C 18.097656 -61.84375 18.6875 -61.582031 19.125 -60.9375 Z M 11.1875 -42.859375 C 13.269531 -46.753906 14.734375 -50.003906 15.578125 -52.609375 C 16.421875 -55.210938 16.90625 -57.097656 17.03125 -58.265625 C 16.425781 -57.398438 15.601562 -55.765625 14.5625 -53.359375 C 13.519531 -50.953125 12.394531 -47.453125 11.1875 -42.859375 Z M 11.1875 -42.859375 "/></g></g></g><g fill="#ff7f00" fill-opacity="1"><g transform="translate(206.760825, 76.699068)"><g/></g></g><g clip-path="url(#248b6c0783)"><g fill="#ff7f00" fill-opacity="1"><g transform="translate(226.725762, 76.699068)"><g><path d="M 84.15625 -75.234375 C 84.238281 -74.890625 84.203125 -74.566406 84.046875 -74.265625 C 83.898438 -73.960938 83.675781 -73.742188 83.375 -73.609375 C 81.070312 -72.878906 78.226562 -72.003906 74.84375 -70.984375 C 71.46875 -69.960938 67.765625 -68.84375 63.734375 -67.625 C 59.742188 -66.414062 55.492188 -65.128906 50.984375 -63.765625 C 46.472656 -62.398438 42.007812 -61.023438 37.59375 -59.640625 C 36.851562 -56.816406 36.035156 -53.441406 35.140625 -49.515625 C 34.253906 -45.597656 33.289062 -41.316406 32.25 -36.671875 C 31.207031 -32.035156 30.125 -27.222656 29 -22.234375 C 27.914062 -17.335938 26.820312 -12.414062 25.71875 -7.46875 C 24.613281 -2.53125 23.539062 2.222656 22.5 6.796875 C 21.457031 11.367188 20.460938 15.628906 19.515625 19.578125 C 17.992188 25.898438 16.753906 30.664062 15.796875 33.875 C 15.109375 36.351562 14.535156 38.023438 14.078125 38.890625 C 13.617188 39.753906 13.085938 40.1875 12.484375 40.1875 C 12.398438 40.1875 12.3125 40.1875 12.21875 40.1875 C 11.75 40.101562 11.394531 39.8125 11.15625 39.3125 C 10.914062 38.8125 10.796875 37.867188 10.796875 36.484375 C 10.796875 35.097656 10.925781 32.992188 11.1875 30.171875 C 11.226562 29.828125 11.378906 29.546875 11.640625 29.328125 C 11.898438 29.109375 12.203125 29.019531 12.546875 29.0625 C 12.898438 29.113281 13.179688 29.269531 13.390625 29.53125 C 13.609375 29.789062 13.695312 30.09375 13.65625 30.4375 C 13.570312 31.382812 13.507812 32.25 13.46875 33.03125 C 14.070312 30.90625 14.773438 28.25 15.578125 25.0625 C 16.378906 21.882812 17.234375 18.351562 18.140625 14.46875 C 19.054688 10.59375 20 6.53125 20.96875 2.28125 C 21.945312 -1.96875 22.910156 -6.226562 23.859375 -10.5 C 24.816406 -14.769531 25.726562 -18.878906 26.59375 -22.828125 C 27.632812 -27.503906 28.640625 -32.039062 29.609375 -36.4375 C 30.585938 -40.84375 31.519531 -44.941406 32.40625 -48.734375 C 33.300781 -52.535156 34.097656 -55.863281 34.796875 -58.71875 C 32.929688 -58.15625 31.109375 -57.59375 29.328125 -57.03125 C 27.546875 -56.46875 25.832031 -55.90625 24.1875 -55.34375 C 19.289062 -53.695312 15.378906 -52.332031 12.453125 -51.25 C 9.523438 -50.164062 7.332031 -49.285156 5.875 -48.609375 C 4.425781 -47.941406 3.421875 -47.410156 2.859375 -47.015625 C 3.296875 -46.710938 3.46875 -46.300781 3.375 -45.78125 C 3.25 -45.082031 2.835938 -44.734375 2.140625 -44.734375 C 2.054688 -44.734375 1.972656 -44.757812 1.890625 -44.8125 C 1.015625 -44.976562 0.4375 -45.242188 0.15625 -45.609375 C -0.125 -45.984375 -0.285156 -46.34375 -0.328125 -46.6875 C -0.328125 -47.125 -0.164062 -47.554688 0.15625 -47.984375 C 0.488281 -48.421875 1.140625 -48.921875 2.109375 -49.484375 C 3.085938 -50.046875 4.550781 -50.738281 6.5 -51.5625 C 10.050781 -53.082031 15.210938 -54.972656 21.984375 -57.234375 C 26.097656 -58.617188 30.515625 -60.046875 35.234375 -61.515625 C 39.960938 -62.992188 44.710938 -64.457031 49.484375 -65.90625 C 54.253906 -67.363281 58.765625 -68.738281 63.015625 -70.03125 C 67.046875 -71.25 70.738281 -72.367188 74.09375 -73.390625 C 77.457031 -74.410156 80.289062 -75.285156 82.59375 -76.015625 C 82.894531 -76.109375 83.207031 -76.078125 83.53125 -75.921875 C 83.851562 -75.773438 84.0625 -75.546875 84.15625 -75.234375 Z M 84.15625 -75.234375 "/></g></g></g></g><g fill="#ff7f00" fill-opacity="1"><g transform="translate(261.973261, 76.699068)"><g><path d="M 28.546875 -14.765625 C 28.847656 -14.585938 29.0625 -14.335938 29.1875 -14.015625 C 29.320312 -13.691406 29.304688 -13.378906 29.140625 -13.078125 C 28.304688 -11.296875 27.296875 -9.296875 26.109375 -7.078125 C 24.921875 -4.867188 23.65625 -2.648438 22.3125 -0.421875 C 20.96875 1.804688 19.597656 3.84375 18.203125 5.6875 C 16.816406 7.53125 15.472656 9.023438 14.171875 10.171875 C 12.867188 11.328125 11.703125 11.90625 10.671875 11.90625 C 10.359375 11.90625 10.070312 11.835938 9.8125 11.703125 C 8.90625 11.359375 8.3125 10.535156 8.03125 9.234375 C 7.75 7.929688 7.78125 6.066406 8.125 3.640625 C 8.738281 -0.734375 10.34375 -6.929688 12.9375 -14.953125 C 12.894531 -14.953125 12.863281 -14.941406 12.84375 -14.921875 C 12.820312 -14.898438 12.789062 -14.890625 12.75 -14.890625 C 11.882812 -14.285156 10.84375 -13.65625 9.625 -13 C 8.40625 -12.351562 7.144531 -11.921875 5.84375 -11.703125 C 4.550781 -11.484375 3.316406 -11.765625 2.140625 -12.546875 C 0.492188 -13.722656 -0.347656 -15.347656 -0.390625 -17.421875 C -0.429688 -19.503906 0.347656 -21.78125 1.953125 -24.25 C 2.472656 -25.03125 3.15625 -25.894531 4 -26.84375 C 4.84375 -27.800781 5.726562 -28.539062 6.65625 -29.0625 C 7.59375 -29.582031 8.429688 -29.609375 9.171875 -29.140625 C 9.554688 -28.921875 9.847656 -28.550781 10.046875 -28.03125 C 10.242188 -27.507812 10.234375 -26.707031 10.015625 -25.625 C 9.796875 -24.539062 9.273438 -23.085938 8.453125 -21.265625 C 7.628906 -19.441406 6.394531 -17.078125 4.75 -14.171875 C 5.75 -14.046875 6.863281 -14.328125 8.09375 -15.015625 C 9.332031 -15.710938 10.425781 -16.363281 11.375 -16.96875 C 12.289062 -17.582031 13.050781 -18.03125 13.65625 -18.3125 C 14.257812 -18.59375 14.820312 -18.535156 15.34375 -18.140625 C 15.820312 -17.753906 16.015625 -17.28125 15.921875 -16.71875 C 15.835938 -16.15625 15.753906 -15.71875 15.671875 -15.40625 C 14.242188 -10.90625 13.140625 -7.15625 12.359375 -4.15625 C 11.578125 -1.164062 11.046875 1.234375 10.765625 3.046875 C 10.484375 4.867188 10.34375 6.234375 10.34375 7.140625 C 10.34375 8.054688 10.40625 8.65625 10.53125 8.9375 C 10.664062 9.21875 10.734375 9.378906 10.734375 9.421875 C 11.253906 9.515625 12.328125 8.679688 13.953125 6.921875 C 15.578125 5.171875 17.515625 2.53125 19.765625 -1 C 22.023438 -4.539062 24.390625 -8.910156 26.859375 -14.109375 C 27.035156 -14.453125 27.285156 -14.675781 27.609375 -14.78125 C 27.929688 -14.894531 28.242188 -14.890625 28.546875 -14.765625 Z M 2.34375 -19.1875 C 2.082031 -18.269531 2.003906 -17.519531 2.109375 -16.9375 C 2.222656 -16.351562 2.382812 -15.890625 2.59375 -15.546875 C 3.988281 -17.972656 5.039062 -19.941406 5.75 -21.453125 C 6.46875 -22.972656 6.957031 -24.144531 7.21875 -24.96875 C 7.476562 -25.789062 7.628906 -26.378906 7.671875 -26.734375 C 7.191406 -26.472656 6.59375 -25.972656 5.875 -25.234375 C 5.164062 -24.492188 4.472656 -23.601562 3.796875 -22.5625 C 3.128906 -21.519531 2.644531 -20.394531 2.34375 -19.1875 Z M 2.34375 -19.1875 "/></g></g></g><g fill="#ff7f00" fill-opacity="1"><g transform="translate(287.921148, 76.699068)"><g><path d="M 27.25 -14.4375 C 27.550781 -14.300781 27.753906 -14.070312 27.859375 -13.75 C 27.972656 -13.425781 27.960938 -13.113281 27.828125 -12.8125 C 27.003906 -11.125 26.101562 -9.429688 25.125 -7.734375 C 24.15625 -6.046875 23.140625 -4.492188 22.078125 -3.078125 C 21.015625 -1.671875 19.921875 -0.546875 18.796875 0.296875 C 17.671875 1.140625 16.539062 1.5625 15.40625 1.5625 C 15.195312 1.5625 14.960938 1.539062 14.703125 1.5 C 11.796875 0.9375 9.992188 -2.960938 9.296875 -10.203125 C 8.554688 -9.210938 7.695312 -8.097656 6.71875 -6.859375 C 5.75 -5.617188 4.722656 -4.394531 3.640625 -3.1875 C 3.460938 -3.007812 3.179688 -2.738281 2.796875 -2.375 C 2.410156 -2.007812 1.957031 -1.71875 1.4375 -1.5 C 0.914062 -1.28125 0.394531 -1.300781 -0.125 -1.5625 C -1.164062 -1.945312 -1.664062 -3.070312 -1.625 -4.9375 C -1.625 -6.019531 -1.414062 -7.363281 -1 -8.96875 C -0.59375 -10.570312 -0.0078125 -12.1875 0.75 -13.8125 C 1.507812 -15.445312 2.394531 -16.890625 3.40625 -18.140625 C 4.425781 -19.398438 5.566406 -20.25 6.828125 -20.6875 C 7.609375 -20.988281 8.5625 -21.039062 9.6875 -20.84375 C 10.8125 -20.644531 11.984375 -19.832031 13.203125 -18.40625 C 13.421875 -18.144531 13.519531 -17.835938 13.5 -17.484375 C 13.476562 -17.140625 13.335938 -16.859375 13.078125 -16.640625 C 12.816406 -16.429688 12.507812 -16.335938 12.15625 -16.359375 C 11.8125 -16.378906 11.53125 -16.519531 11.3125 -16.78125 C 10.269531 -17.988281 9.367188 -18.5625 8.609375 -18.5 C 7.859375 -18.4375 7.222656 -18.207031 6.703125 -17.8125 C 5.742188 -17.125 4.875 -16.128906 4.09375 -14.828125 C 3.3125 -13.523438 2.660156 -12.15625 2.140625 -10.71875 C 1.617188 -9.289062 1.25 -7.957031 1.03125 -6.71875 C 0.820312 -5.488281 0.757812 -4.59375 0.84375 -4.03125 C 0.976562 -4.113281 1.117188 -4.21875 1.265625 -4.34375 C 1.421875 -4.476562 1.582031 -4.65625 1.75 -4.875 C 3.050781 -6.300781 4.242188 -7.71875 5.328125 -9.125 C 6.410156 -10.539062 7.34375 -11.789062 8.125 -12.875 C 8.34375 -13.175781 8.550781 -13.46875 8.75 -13.75 C 8.945312 -14.03125 9.128906 -14.28125 9.296875 -14.5 C 9.640625 -14.9375 10.097656 -15.066406 10.671875 -14.890625 C 11.234375 -14.765625 11.535156 -14.394531 11.578125 -13.78125 C 11.703125 -10.96875 11.925781 -8.703125 12.25 -6.984375 C 12.582031 -5.273438 12.941406 -4 13.328125 -3.15625 C 13.722656 -2.3125 14.09375 -1.734375 14.4375 -1.421875 C 14.78125 -1.117188 15.039062 -0.96875 15.21875 -0.96875 C 16.039062 -0.800781 17.363281 -1.648438 19.1875 -3.515625 C 21.007812 -5.378906 23.132812 -8.828125 25.5625 -13.859375 C 25.726562 -14.203125 25.972656 -14.425781 26.296875 -14.53125 C 26.628906 -14.644531 26.945312 -14.613281 27.25 -14.4375 Z M 27.25 -14.4375 "/></g></g></g><g fill="#ff7f00" fill-opacity="1"><g transform="translate(312.113188, 76.699068)"><g><path d="M 19.046875 -14.828125 C 19.359375 -14.648438 19.546875 -14.390625 19.609375 -14.046875 C 19.671875 -13.703125 19.613281 -13.378906 19.4375 -13.078125 C 18.613281 -11.773438 17.570312 -10.320312 16.3125 -8.71875 C 15.0625 -7.113281 13.695312 -5.582031 12.21875 -4.125 C 10.75 -2.675781 9.285156 -1.472656 7.828125 -0.515625 C 6.378906 0.429688 5.050781 0.90625 3.84375 0.90625 C 3.320312 0.90625 2.863281 0.820312 2.46875 0.65625 C 1 0 0.1875 -1.570312 0.03125 -4.0625 C -0.113281 -6.550781 0.394531 -10.070312 1.5625 -14.625 C 1.644531 -14.976562 1.835938 -15.238281 2.140625 -15.40625 C 2.441406 -15.582031 2.75 -15.628906 3.0625 -15.546875 C 3.40625 -15.453125 3.660156 -15.253906 3.828125 -14.953125 C 4.003906 -14.648438 4.050781 -14.347656 3.96875 -14.046875 C 3.269531 -11.273438 2.832031 -9.070312 2.65625 -7.4375 C 2.488281 -5.8125 2.457031 -4.585938 2.5625 -3.765625 C 2.675781 -2.941406 2.835938 -2.390625 3.046875 -2.109375 C 3.265625 -1.828125 3.398438 -1.6875 3.453125 -1.6875 C 4.015625 -1.425781 4.835938 -1.609375 5.921875 -2.234375 C 7.003906 -2.867188 8.21875 -3.800781 9.5625 -5.03125 C 10.90625 -6.269531 12.257812 -7.703125 13.625 -9.328125 C 14.988281 -10.953125 16.210938 -12.65625 17.296875 -14.4375 C 17.515625 -14.738281 17.785156 -14.921875 18.109375 -14.984375 C 18.429688 -15.054688 18.742188 -15.003906 19.046875 -14.828125 Z M 3.703125 -20.03125 C 2.835938 -20.070312 2.394531 -20.316406 2.375 -20.765625 C 2.351562 -21.222656 2.546875 -21.691406 2.953125 -22.171875 C 3.367188 -22.648438 3.796875 -22.976562 4.234375 -23.15625 C 4.921875 -23.363281 5.425781 -23.316406 5.75 -23.015625 C 6.082031 -22.710938 6.234375 -22.320312 6.203125 -21.84375 C 6.179688 -21.375 5.960938 -20.941406 5.546875 -20.546875 C 5.140625 -20.160156 4.523438 -19.988281 3.703125 -20.03125 Z M 3.703125 -20.03125 "/></g></g></g><g fill="#ff7f00" fill-opacity="1"><g transform="translate(328.566357, 76.699068)"><g><path d="M 26.203125 -14.5 C 26.503906 -14.320312 26.695312 -14.070312 26.78125 -13.75 C 26.875 -13.425781 26.832031 -13.113281 26.65625 -12.8125 C 24.625 -9.207031 22.796875 -6.441406 21.171875 -4.515625 C 19.546875 -2.585938 17.882812 -1.734375 16.1875 -1.953125 C 14.019531 -2.210938 12.3125 -4.550781 11.0625 -8.96875 C 10.625 -10.40625 10.238281 -11.4375 9.90625 -12.0625 C 9.582031 -12.6875 9.320312 -13.078125 9.125 -13.234375 C 8.9375 -13.390625 8.800781 -13.46875 8.71875 -13.46875 C 8.582031 -13.507812 8.316406 -13.375 7.921875 -13.0625 C 7.535156 -12.757812 6.972656 -12.085938 6.234375 -11.046875 C 5.503906 -10.015625 4.597656 -8.398438 3.515625 -6.203125 C 2.429688 -4.015625 1.109375 -1.015625 -0.453125 2.796875 C -0.671875 3.316406 -1.039062 3.578125 -1.5625 3.578125 C -1.6875 3.578125 -1.796875 3.554688 -1.890625 3.515625 C -2.617188 3.335938 -2.941406 2.878906 -2.859375 2.140625 C -2.640625 0.367188 -2.25 -1.6875 -1.6875 -4.03125 C -1.125 -6.375 -0.507812 -8.757812 0.15625 -11.1875 C 0.832031 -13.613281 1.453125 -15.78125 2.015625 -17.6875 C 2.148438 -18.125 2.269531 -18.523438 2.375 -18.890625 C 2.476562 -19.253906 2.578125 -19.613281 2.671875 -19.96875 C 2.796875 -20.3125 3.007812 -20.554688 3.3125 -20.703125 C 3.613281 -20.859375 3.921875 -20.894531 4.234375 -20.8125 C 4.578125 -20.726562 4.832031 -20.53125 5 -20.21875 C 5.175781 -19.914062 5.203125 -19.59375 5.078125 -19.25 C 4.984375 -18.90625 4.882812 -18.546875 4.78125 -18.171875 C 4.675781 -17.804688 4.554688 -17.40625 4.421875 -16.96875 C 4.117188 -15.84375 3.769531 -14.609375 3.375 -13.265625 C 2.988281 -11.921875 2.601562 -10.554688 2.21875 -9.171875 C 3.6875 -11.941406 4.941406 -13.78125 5.984375 -14.6875 C 7.023438 -15.601562 7.976562 -16.039062 8.84375 -16 C 10.0625 -15.914062 11.015625 -15.242188 11.703125 -13.984375 C 12.398438 -12.722656 12.988281 -11.269531 13.46875 -9.625 C 14.113281 -7.375 14.71875 -5.941406 15.28125 -5.328125 C 15.84375 -4.722656 16.253906 -4.421875 16.515625 -4.421875 C 17.078125 -4.335938 17.738281 -4.648438 18.5 -5.359375 C 19.257812 -6.078125 20.019531 -6.988281 20.78125 -8.09375 C 21.539062 -9.195312 22.253906 -10.289062 22.921875 -11.375 C 23.597656 -12.457031 24.109375 -13.347656 24.453125 -14.046875 C 24.628906 -14.347656 24.890625 -14.539062 25.234375 -14.625 C 25.578125 -14.71875 25.898438 -14.675781 26.203125 -14.5 Z M 26.203125 -14.5 "/></g></g></g><g fill="#ff7f00" fill-opacity="1"><g transform="translate(351.782922, 76.699068)"><g><path d="M 21.984375 -14.5 C 22.285156 -14.320312 22.457031 -14.0625 22.5 -13.71875 C 22.539062 -13.375 22.476562 -13.070312 22.3125 -12.8125 C 19.75 -9.257812 17.40625 -6.320312 15.28125 -4 C 13.15625 -1.675781 11.03125 0.238281 8.90625 1.75 C 7.300781 2.882812 5.71875 3.453125 4.15625 3.453125 C 2.945312 3.453125 1.882812 3.125 0.96875 2.46875 C 0.363281 2.039062 -0.226562 1.269531 -0.8125 0.15625 C -1.394531 -0.945312 -1.707031 -2.546875 -1.75 -4.640625 C -1.800781 -6.742188 -1.28125 -9.507812 -0.1875 -12.9375 C -0.1875 -12.9375 -0.1875 -12.957031 -0.1875 -13 C 1.101562 -17.164062 2.625 -20.34375 4.375 -22.53125 C 6.132812 -24.71875 7.644531 -25.832031 8.90625 -25.875 C 9.90625 -25.925781 10.554688 -25.492188 10.859375 -24.578125 C 11.335938 -23.328125 10.773438 -21.539062 9.171875 -19.21875 C 7.566406 -16.894531 5.203125 -14.429688 2.078125 -11.828125 C 1.128906 -8.796875 0.675781 -6.421875 0.71875 -4.703125 C 0.757812 -2.992188 0.992188 -1.757812 1.421875 -1 C 1.859375 -0.25 2.207031 0.234375 2.46875 0.453125 C 3.769531 1.410156 5.441406 1.148438 7.484375 -0.328125 C 9.472656 -1.710938 11.484375 -3.519531 13.515625 -5.75 C 15.554688 -7.988281 17.789062 -10.816406 20.21875 -14.234375 C 20.4375 -14.492188 20.71875 -14.65625 21.0625 -14.71875 C 21.414062 -14.789062 21.722656 -14.71875 21.984375 -14.5 Z M 8.453125 -23.15625 C 7.972656 -22.851562 7.320312 -22.210938 6.5 -21.234375 C 5.675781 -20.253906 4.832031 -18.832031 3.96875 -16.96875 C 5.53125 -18.488281 6.632812 -19.78125 7.28125 -20.84375 C 7.9375 -21.90625 8.328125 -22.675781 8.453125 -23.15625 Z M 8.453125 -23.15625 "/></g></g></g><g clip-path="url(#862fa5d406)"><g fill="#ff7f00" fill-opacity="1"><g transform="translate(370.707322, 76.699068)"><g><path d="M 28.546875 -14.765625 C 28.847656 -14.585938 29.0625 -14.335938 29.1875 -14.015625 C 29.320312 -13.691406 29.304688 -13.378906 29.140625 -13.078125 C 28.304688 -11.296875 27.296875 -9.296875 26.109375 -7.078125 C 24.921875 -4.867188 23.65625 -2.648438 22.3125 -0.421875 C 20.96875 1.804688 19.597656 3.84375 18.203125 5.6875 C 16.816406 7.53125 15.472656 9.023438 14.171875 10.171875 C 12.867188 11.328125 11.703125 11.90625 10.671875 11.90625 C 10.359375 11.90625 10.070312 11.835938 9.8125 11.703125 C 8.90625 11.359375 8.3125 10.535156 8.03125 9.234375 C 7.75 7.929688 7.78125 6.066406 8.125 3.640625 C 8.738281 -0.734375 10.34375 -6.929688 12.9375 -14.953125 C 12.894531 -14.953125 12.863281 -14.941406 12.84375 -14.921875 C 12.820312 -14.898438 12.789062 -14.890625 12.75 -14.890625 C 11.882812 -14.285156 10.84375 -13.65625 9.625 -13 C 8.40625 -12.351562 7.144531 -11.921875 5.84375 -11.703125 C 4.550781 -11.484375 3.316406 -11.765625 2.140625 -12.546875 C 0.492188 -13.722656 -0.347656 -15.347656 -0.390625 -17.421875 C -0.429688 -19.503906 0.347656 -21.78125 1.953125 -24.25 C 2.472656 -25.03125 3.15625 -25.894531 4 -26.84375 C 4.84375 -27.800781 5.726562 -28.539062 6.65625 -29.0625 C 7.59375 -29.582031 8.429688 -29.609375 9.171875 -29.140625 C 9.554688 -28.921875 9.847656 -28.550781 10.046875 -28.03125 C 10.242188 -27.507812 10.234375 -26.707031 10.015625 -25.625 C 9.796875 -24.539062 9.273438 -23.085938 8.453125 -21.265625 C 7.628906 -19.441406 6.394531 -17.078125 4.75 -14.171875 C 5.75 -14.046875 6.863281 -14.328125 8.09375 -15.015625 C 9.332031 -15.710938 10.425781 -16.363281 11.375 -16.96875 C 12.289062 -17.582031 13.050781 -18.03125 13.65625 -18.3125 C 14.257812 -18.59375 14.820312 -18.535156 15.34375 -18.140625 C 15.820312 -17.753906 16.015625 -17.28125 15.921875 -16.71875 C 15.835938 -16.15625 15.753906 -15.71875 15.671875 -15.40625 C 14.242188 -10.90625 13.140625 -7.15625 12.359375 -4.15625 C 11.578125 -1.164062 11.046875 1.234375 10.765625 3.046875 C 10.484375 4.867188 10.34375 6.234375 10.34375 7.140625 C 10.34375 8.054688 10.40625 8.65625 10.53125 8.9375 C 10.664062 9.21875 10.734375 9.378906 10.734375 9.421875 C 11.253906 9.515625 12.328125 8.679688 13.953125 6.921875 C 15.578125 5.171875 17.515625 2.53125 19.765625 -1 C 22.023438 -4.539062 24.390625 -8.910156 26.859375 -14.109375 C 27.035156 -14.453125 27.285156 -14.675781 27.609375 -14.78125 C 27.929688 -14.894531 28.242188 -14.890625 28.546875 -14.765625 Z M 2.34375 -19.1875 C 2.082031 -18.269531 2.003906 -17.519531 2.109375 -16.9375 C 2.222656 -16.351562 2.382812 -15.890625 2.59375 -15.546875 C 3.988281 -17.972656 5.039062 -19.941406 5.75 -21.453125 C 6.46875 -22.972656 6.957031 -24.144531 7.21875 -24.96875 C 7.476562 -25.789062 7.628906 -26.378906 7.671875 -26.734375 C 7.191406 -26.472656 6.59375 -25.972656 5.875 -25.234375 C 5.164062 -24.492188 4.472656 -23.601562 3.796875 -22.5625 C 3.128906 -21.519531 2.644531 -20.394531 2.34375 -19.1875 Z M 2.34375 -19.1875 "/></g></g></g></g></g></g></g></g></g></svg>