<svg xmlns="http://www.w3.org/2000/svg" xmlns:xlink="http://www.w3.org/1999/xlink" width="500" zoomAndPan="magnify" viewBox="0 0 375 374.999991" height="500" preserveAspectRatio="xMidYMid meet" version="1.0"><defs><g/><clipPath id="99a0ae2c87"><path d="M 188 162 L 236 162 L 236 209.984375 L 188 209.984375 Z M 188 162 " clip-rule="nonzero"/></clipPath><clipPath id="577065dd3e"><rect x="0" width="166" y="0" height="13"/></clipPath><clipPath id="d87e5a0a17"><path d="M 200.507812 150.667969 L 251.007812 150.667969 L 251.007812 205.902344 L 200.507812 205.902344 Z M 200.507812 150.667969 " clip-rule="nonzero"/></clipPath><clipPath id="8f48d755d4"><path d="M 207.257812 150.667969 L 244.257812 150.667969 C 247.984375 150.667969 251.007812 153.691406 251.007812 157.417969 L 251.007812 199.136719 C 251.007812 202.863281 247.984375 205.886719 244.257812 205.886719 L 207.257812 205.886719 C 203.53125 205.886719 200.507812 202.863281 200.507812 199.136719 L 200.507812 157.417969 C 200.507812 153.691406 203.53125 150.667969 207.257812 150.667969 Z M 207.257812 150.667969 " clip-rule="nonzero"/></clipPath><clipPath id="aa8d1fa987"><path d="M 0.507812 0.667969 L 51.007812 0.667969 L 51.007812 55.902344 L 0.507812 55.902344 Z M 0.507812 0.667969 " clip-rule="nonzero"/></clipPath><clipPath id="645fdfea37"><path d="M 7.257812 0.667969 L 44.257812 0.667969 C 47.984375 0.667969 51.007812 3.691406 51.007812 7.417969 L 51.007812 49.136719 C 51.007812 52.863281 47.984375 55.886719 44.257812 55.886719 L 7.257812 55.886719 C 3.53125 55.886719 0.507812 52.863281 0.507812 49.136719 L 0.507812 7.417969 C 0.507812 3.691406 3.53125 0.667969 7.257812 0.667969 Z M 7.257812 0.667969 " clip-rule="nonzero"/></clipPath><clipPath id="7ea3e19de9"><rect x="0" width="52" y="0" height="56"/></clipPath><clipPath id="160cc823e9"><rect x="0" width="157" y="0" height="155"/></clipPath><clipPath id="035150724f"><path d="M 188 139.230469 L 260 139.230469 L 260 210 L 188 210 Z M 188 139.230469 " clip-rule="nonzero"/></clipPath></defs><rect x="-37.5" width="450" fill="#ffffff" y="-37.499999" height="449.999989" fill-opacity="1"/><rect x="-37.5" width="450" fill="#0d0d0d" y="-37.499999" height="449.999989" fill-opacity="1"/><g clip-path="url(#99a0ae2c87)"><path fill="#000000" d="M 191.023438 208.730469 C 189.382812 209.820312 187.5 208.558594 188.582031 206.824219 C 189.671875 205.082031 210.640625 174.730469 211.894531 173.085938 C 213.15625 171.445312 214.386719 171.058594 216.003906 171.34375 C 217.621094 171.632812 220.257812 172.140625 221.339844 174.535156 C 222.429688 176.929688 223.660156 179.628906 223.976562 180.140625 C 224.289062 180.648438 224.917969 180.210938 225.835938 179.707031 C 226.753906 179.199219 231.417969 177.21875 233.085938 176.230469 C 234.75 175.238281 236.25 176.734375 235.261719 178.113281 C 234.273438 179.488281 227.140625 186.398438 226.152344 187.390625 C 225.164062 188.378906 222.746094 188.867188 221.246094 187.078125 C 220.449219 186.128906 219.75 185.324219 219.269531 184.773438 C 219.082031 184.5625 218.847656 184.449219 218.566406 184.429688 C 218.289062 184.410156 218.039062 184.496094 217.828125 184.683594 C 209.714844 191.851562 199.136719 201.550781 191.023438 208.730469 Z M 223.175781 162 C 225.710938 162 227.765625 164.054688 227.765625 166.589844 C 227.765625 169.125 225.710938 171.179688 223.175781 171.179688 C 220.640625 171.179688 218.585938 169.125 218.585938 166.589844 C 218.585938 164.054688 220.640625 162 223.175781 162 Z M 219.253906 187.839844 C 220.507812 189.207031 221.8125 190.640625 222.382812 191.300781 C 223.640625 192.746094 223.828125 194.246094 222.285156 195.695312 C 220.738281 197.140625 214.410156 201.589844 211.894531 203.230469 C 209.382812 204.875 207.402344 203.667969 208.800781 202.027344 C 210.203125 200.382812 212.8125 197.242188 213.875 195.9375 C 214.347656 195.359375 213.769531 194.558594 212.820312 193.742188 C 212.582031 193.535156 212.453125 193.265625 212.453125 192.949219 C 212.453125 192.636719 212.574219 192.363281 212.808594 192.15625 L 217.777344 187.757812 C 218.214844 187.386719 218.867188 187.417969 219.253906 187.839844 Z M 207.371094 172.707031 C 206.871094 172.871094 206.351562 173.039062 205.808594 173.230469 C 201.464844 174.722656 195.566406 177.046875 193.585938 177.914062 C 191.601562 178.785156 192.472656 181.25 194.503906 180.859375 C 195.511719 180.667969 200.335938 179.859375 204.945312 179.089844 C 205.242188 179.042969 205.480469 178.886719 205.644531 178.636719 C 206.730469 177.019531 207.722656 175.542969 208.566406 174.292969 C 208.820312 173.914062 208.804688 173.441406 208.535156 173.078125 C 208.261719 172.714844 207.808594 172.570312 207.371094 172.707031 Z M 207.371094 172.707031 " fill-opacity="1" fill-rule="evenodd"/></g><g transform="matrix(1, 0, 0, 1, 107, 217)"><g clip-path="url(#577065dd3e)"><g fill="#ffffff" fill-opacity="1"><g transform="translate(0.812228, 9.772642)"><g><path d="M 1.421875 -3.296875 L 2.96875 -3.296875 C 3.351562 -3.296875 3.664062 -3.425781 3.90625 -3.6875 C 4.164062 -3.945312 4.296875 -4.273438 4.296875 -4.671875 C 4.296875 -5.054688 4.175781 -5.375 3.9375 -5.625 C 3.6875 -5.875 3.363281 -6 2.96875 -6 L 1.421875 -6 Z M 4.984375 -4.640625 C 4.984375 -4.066406 4.773438 -3.585938 4.359375 -3.203125 C 3.953125 -2.816406 3.453125 -2.625 2.859375 -2.625 L 1.421875 -2.625 L 1.421875 0 L 0.734375 0 L 0.734375 -6.65625 L 2.859375 -6.65625 C 3.453125 -6.65625 3.953125 -6.46875 4.359375 -6.09375 C 4.773438 -5.71875 4.984375 -5.234375 4.984375 -4.640625 Z M 4.984375 -4.640625 "/></g></g></g><g fill="#ffffff" fill-opacity="1"><g transform="translate(11.126658, 9.772642)"><g><path d="M 4.6875 0 L 0.734375 0 L 0.734375 -6.65625 L 4.6875 -6.65625 L 4.6875 -6.015625 L 1.421875 -6.015625 L 1.421875 -3.65625 L 4.59375 -3.65625 L 4.59375 -3 L 1.421875 -3 L 1.421875 -0.640625 L 4.6875 -0.640625 Z M 4.6875 0 "/></g></g></g><g fill="#ffffff" fill-opacity="1"><g transform="translate(21.685739, 9.772642)"><g><path d="M 1.421875 -3.28125 L 2.96875 -3.28125 C 3.351562 -3.28125 3.664062 -3.410156 3.90625 -3.671875 C 4.164062 -3.941406 4.296875 -4.273438 4.296875 -4.671875 C 4.296875 -5.054688 4.175781 -5.375 3.9375 -5.625 C 3.6875 -5.875 3.363281 -6 2.96875 -6 L 1.421875 -6 Z M 4.984375 -4.640625 C 4.984375 -4.066406 4.773438 -3.585938 4.359375 -3.203125 C 3.992188 -2.859375 3.554688 -2.671875 3.046875 -2.640625 L 5.09375 0 L 4.171875 0 L 2.21875 -2.625 L 1.421875 -2.625 L 1.421875 0 L 0.734375 0 L 0.734375 -6.65625 L 2.859375 -6.65625 C 3.453125 -6.65625 3.953125 -6.46875 4.359375 -6.09375 C 4.773438 -5.695312 4.984375 -5.210938 4.984375 -4.640625 Z M 4.984375 -4.640625 "/></g></g></g><g fill="#ffffff" fill-opacity="1"><g transform="translate(32.146965, 9.772642)"><g><path d="M 2.578125 -3.140625 C 1.222656 -3.453125 0.546875 -4.03125 0.546875 -4.875 C 0.546875 -5.5 0.765625 -5.972656 1.203125 -6.296875 C 1.640625 -6.597656 2.148438 -6.75 2.734375 -6.75 C 4.035156 -6.75 4.804688 -6.265625 5.046875 -5.296875 L 4.296875 -5.296875 C 4.171875 -5.867188 3.648438 -6.15625 2.734375 -6.15625 C 2.097656 -6.15625 1.65625 -5.96875 1.40625 -5.59375 C 1.300781 -5.445312 1.25 -5.269531 1.25 -5.0625 C 1.25 -4.644531 1.472656 -4.328125 1.921875 -4.109375 C 2.128906 -3.992188 2.570312 -3.847656 3.25 -3.671875 C 3.925781 -3.492188 4.414062 -3.300781 4.71875 -3.09375 C 5.144531 -2.789062 5.359375 -2.367188 5.359375 -1.828125 C 5.359375 -1.160156 5.09375 -0.648438 4.5625 -0.296875 C 4.125 -0.015625 3.578125 0.125 2.921875 0.125 C 1.453125 0.125 0.597656 -0.4375 0.359375 -1.5625 L 1.171875 -1.5625 C 1.296875 -0.851562 1.878906 -0.5 2.921875 -0.5 C 3.671875 -0.5 4.191406 -0.703125 4.484375 -1.109375 C 4.597656 -1.273438 4.65625 -1.5 4.65625 -1.78125 C 4.65625 -2.050781 4.546875 -2.273438 4.328125 -2.453125 C 4.023438 -2.703125 3.441406 -2.929688 2.578125 -3.140625 Z M 2.578125 -3.140625 "/></g></g></g><g fill="#ffffff" fill-opacity="1"><g transform="translate(42.90177, 9.772642)"><g><path d="M 6.59375 -3.34375 C 6.59375 -4.09375 6.328125 -4.734375 5.796875 -5.265625 C 5.253906 -5.804688 4.609375 -6.078125 3.859375 -6.078125 C 3.109375 -6.078125 2.460938 -5.804688 1.921875 -5.265625 C 1.390625 -4.734375 1.125 -4.09375 1.125 -3.34375 C 1.125 -2.582031 1.390625 -1.9375 1.921875 -1.40625 C 2.460938 -0.875 3.109375 -0.609375 3.859375 -0.609375 C 4.609375 -0.609375 5.253906 -0.875 5.796875 -1.40625 C 6.328125 -1.9375 6.59375 -2.582031 6.59375 -3.34375 Z M 7.28125 -3.34375 C 7.28125 -2.875 7.191406 -2.429688 7.015625 -2.015625 C 6.828125 -1.597656 6.582031 -1.234375 6.28125 -0.921875 C 5.96875 -0.609375 5.601562 -0.367188 5.1875 -0.203125 C 4.769531 -0.015625 4.328125 0.078125 3.859375 0.078125 C 3.390625 0.078125 2.945312 -0.015625 2.53125 -0.203125 C 2.113281 -0.367188 1.753906 -0.609375 1.453125 -0.921875 C 1.140625 -1.234375 0.894531 -1.597656 0.71875 -2.015625 C 0.53125 -2.429688 0.4375 -2.875 0.4375 -3.34375 C 0.4375 -3.8125 0.53125 -4.253906 0.71875 -4.671875 C 0.894531 -5.085938 1.140625 -5.453125 1.453125 -5.765625 C 1.753906 -6.066406 2.113281 -6.3125 2.53125 -6.5 C 2.945312 -6.675781 3.390625 -6.765625 3.859375 -6.765625 C 4.328125 -6.765625 4.769531 -6.675781 5.1875 -6.5 C 5.601562 -6.3125 5.96875 -6.066406 6.28125 -5.765625 C 6.582031 -5.453125 6.828125 -5.085938 7.015625 -4.671875 C 7.191406 -4.253906 7.28125 -3.8125 7.28125 -3.34375 Z M 7.28125 -3.34375 "/></g></g></g><g fill="#ffffff" fill-opacity="1"><g transform="translate(55.760572, 9.772642)"><g><path d="M 1.421875 -4.90625 L 1.421875 0 L 0.734375 0 L 0.734375 -7.078125 L 4.46875 -1.765625 L 4.46875 -6.65625 L 5.15625 -6.65625 L 5.15625 0.40625 Z M 1.421875 -4.90625 "/></g></g></g><g fill="#ffffff" fill-opacity="1"><g transform="translate(66.789382, 9.772642)"><g><path d="M 1.8125 -2.453125 L 4.21875 -2.453125 L 3.015625 -5.5 Z M 5.9375 0 L 5.1875 0 L 4.484375 -1.8125 L 1.5625 -1.8125 L 0.84375 0 L 0.09375 0 L 3.015625 -7.109375 Z M 5.9375 0 "/></g></g></g><g fill="#ffffff" fill-opacity="1"><g transform="translate(77.964989, 9.772642)"><g><path d="M 1.421875 -0.6875 L 3.796875 -0.6875 L 3.796875 0 L 0.734375 0 L 0.734375 -6.65625 L 1.421875 -6.65625 Z M 1.421875 -0.6875 "/></g></g></g><g fill="#ffffff" fill-opacity="1"><g transform="translate(87.09532, 9.772642)"><g/></g></g><g fill="#ffffff" fill-opacity="1"><g transform="translate(94.875171, 9.772642)"><g><path d="M 0.203125 -6.03125 L 0.203125 -6.671875 L 4.109375 -6.671875 L 4.109375 -6.03125 L 2.5 -6.03125 L 2.5 -0.015625 L 1.8125 -0.015625 L 1.8125 -6.03125 Z M 0.203125 -6.03125 "/></g></g></g><g fill="#ffffff" fill-opacity="1"><g transform="translate(104.318655, 9.772642)"><g><path d="M 1.421875 -3.28125 L 2.96875 -3.28125 C 3.351562 -3.28125 3.664062 -3.410156 3.90625 -3.671875 C 4.164062 -3.941406 4.296875 -4.273438 4.296875 -4.671875 C 4.296875 -5.054688 4.175781 -5.375 3.9375 -5.625 C 3.6875 -5.875 3.363281 -6 2.96875 -6 L 1.421875 -6 Z M 4.984375 -4.640625 C 4.984375 -4.066406 4.773438 -3.585938 4.359375 -3.203125 C 3.992188 -2.859375 3.554688 -2.671875 3.046875 -2.640625 L 5.09375 0 L 4.171875 0 L 2.21875 -2.625 L 1.421875 -2.625 L 1.421875 0 L 0.734375 0 L 0.734375 -6.65625 L 2.859375 -6.65625 C 3.453125 -6.65625 3.953125 -6.46875 4.359375 -6.09375 C 4.773438 -5.695312 4.984375 -5.210938 4.984375 -4.640625 Z M 4.984375 -4.640625 "/></g></g></g><g fill="#ffffff" fill-opacity="1"><g transform="translate(114.779881, 9.772642)"><g><path d="M 1.8125 -2.453125 L 4.21875 -2.453125 L 3.015625 -5.5 Z M 5.9375 0 L 5.1875 0 L 4.484375 -1.8125 L 1.5625 -1.8125 L 0.84375 0 L 0.09375 0 L 3.015625 -7.109375 Z M 5.9375 0 "/></g></g></g><g fill="#ffffff" fill-opacity="1"><g transform="translate(125.955487, 9.772642)"><g><path d="M 1.421875 0 L 0.734375 0 L 0.734375 -6.65625 L 1.421875 -6.65625 Z M 1.421875 0 "/></g></g></g><g fill="#ffffff" fill-opacity="1"><g transform="translate(133.246035, 9.772642)"><g><path d="M 1.421875 -4.90625 L 1.421875 0 L 0.734375 0 L 0.734375 -7.078125 L 4.46875 -1.765625 L 4.46875 -6.65625 L 5.15625 -6.65625 L 5.15625 0.40625 Z M 1.421875 -4.90625 "/></g></g></g><g fill="#ffffff" fill-opacity="1"><g transform="translate(144.274846, 9.772642)"><g><path d="M 4.6875 0 L 0.734375 0 L 0.734375 -6.65625 L 4.6875 -6.65625 L 4.6875 -6.015625 L 1.421875 -6.015625 L 1.421875 -3.65625 L 4.59375 -3.65625 L 4.59375 -3 L 1.421875 -3 L 1.421875 -0.640625 L 4.6875 -0.640625 Z M 4.6875 0 "/></g></g></g><g fill="#ffffff" fill-opacity="1"><g transform="translate(154.833927, 9.772642)"><g><path d="M 1.421875 -3.28125 L 2.96875 -3.28125 C 3.351562 -3.28125 3.664062 -3.410156 3.90625 -3.671875 C 4.164062 -3.941406 4.296875 -4.273438 4.296875 -4.671875 C 4.296875 -5.054688 4.175781 -5.375 3.9375 -5.625 C 3.6875 -5.875 3.363281 -6 2.96875 -6 L 1.421875 -6 Z M 4.984375 -4.640625 C 4.984375 -4.066406 4.773438 -3.585938 4.359375 -3.203125 C 3.992188 -2.859375 3.554688 -2.671875 3.046875 -2.640625 L 5.09375 0 L 4.171875 0 L 2.21875 -2.625 L 1.421875 -2.625 L 1.421875 0 L 0.734375 0 L 0.734375 -6.65625 L 2.859375 -6.65625 C 3.453125 -6.65625 3.953125 -6.46875 4.359375 -6.09375 C 4.773438 -5.695312 4.984375 -5.210938 4.984375 -4.640625 Z M 4.984375 -4.640625 "/></g></g></g></g></g><g clip-path="url(#d87e5a0a17)"><g clip-path="url(#8f48d755d4)"><g transform="matrix(1, 0, 0, 1, 200, 150)"><g clip-path="url(#7ea3e19de9)"><g clip-path="url(#aa8d1fa987)"><g clip-path="url(#645fdfea37)"><path fill="#ff7f00" d="M 0.507812 0.667969 L 51.007812 0.667969 L 51.007812 55.902344 L 0.507812 55.902344 Z M 0.507812 0.667969 " fill-opacity="1" fill-rule="nonzero"/></g></g></g></g></g></g><g transform="matrix(1, 0, 0, 1, 108, 97)"><g clip-path="url(#160cc823e9)"><g fill="#ffffff" fill-opacity="1"><g transform="translate(0.764079, 114.033667)"><g><path d="M 5.203125 0 L 5.203125 -74.25 L 45.40625 -74.25 C 51.976562 -74.25 57.613281 -73.117188 62.3125 -70.859375 C 67.019531 -68.597656 70.644531 -65.394531 73.1875 -61.25 C 75.738281 -57.113281 77.015625 -52.148438 77.015625 -46.359375 C 77.015625 -41.765625 76.203125 -37.660156 74.578125 -34.046875 C 72.953125 -30.441406 70.582031 -27.398438 67.46875 -24.921875 L 78.609375 0 L 46.359375 0 L 39.359375 -18.453125 L 35 -18.453125 L 35 0 Z M 34.578125 -39.03125 L 39.671875 -39.03125 C 41.929688 -39.03125 43.695312 -39.597656 44.96875 -40.734375 C 46.25 -41.867188 46.890625 -43.53125 46.890625 -45.71875 C 46.890625 -47.976562 46.25 -49.640625 44.96875 -50.703125 C 43.695312 -51.765625 41.929688 -52.296875 39.671875 -52.296875 L 34.578125 -52.296875 Z M 34.578125 -39.03125 "/></g></g></g><g fill="#ff7f00" fill-opacity="1"><g transform="translate(78.962567, 114.033667)"><g><path d="M 5.203125 0 L 5.203125 -74.25 L 51.234375 -74.25 C 58.660156 -74.25 64.476562 -72.515625 68.6875 -69.046875 C 72.894531 -65.585938 75 -60.78125 75 -54.625 C 75 -50.738281 74.164062 -47.3125 72.5 -44.34375 C 70.84375 -41.375 68.492188 -39.078125 65.453125 -37.453125 C 68.984375 -35.890625 71.789062 -33.570312 73.875 -30.5 C 75.96875 -27.425781 77.015625 -23.835938 77.015625 -19.734375 C 77.015625 -15.773438 76.023438 -12.304688 74.046875 -9.328125 C 72.066406 -6.359375 69.269531 -4.0625 65.65625 -2.4375 C 62.050781 -0.8125 57.8125 0 52.9375 0 Z M 33.84375 -18.875 L 41.578125 -18.875 C 45.398438 -18.875 47.3125 -20.539062 47.3125 -23.875 C 47.3125 -27.257812 45.398438 -28.953125 41.578125 -28.953125 L 33.84375 -28.953125 Z M 33.84375 -45.9375 L 40.84375 -45.9375 C 44.59375 -45.9375 46.46875 -47.5625 46.46875 -50.8125 C 46.46875 -54.0625 44.59375 -55.6875 40.84375 -55.6875 L 33.84375 -55.6875 Z M 33.84375 -45.9375 "/></g></g></g></g></g><g clip-path="url(#035150724f)"><path fill="#0d0d0d" d="M 192.75 208.859375 C 190.304688 210.480469 187.5 208.605469 189.113281 206.019531 C 190.734375 203.425781 221.972656 158.210938 223.84375 155.765625 C 225.71875 153.316406 227.550781 152.742188 229.960938 153.171875 C 232.371094 153.601562 236.296875 154.355469 237.910156 157.921875 C 239.53125 161.488281 241.363281 165.511719 241.835938 166.273438 C 242.300781 167.027344 243.238281 166.378906 244.605469 165.625 C 245.976562 164.871094 252.925781 161.917969 255.40625 160.445312 C 257.886719 158.972656 260.121094 161.199219 258.648438 163.25 C 257.175781 165.300781 246.550781 175.589844 245.078125 177.070312 C 243.605469 178.546875 240.003906 179.269531 237.769531 176.605469 C 236.585938 175.191406 235.542969 173.992188 234.824219 173.175781 C 234.550781 172.855469 234.195312 172.6875 233.78125 172.660156 C 233.363281 172.632812 232.992188 172.757812 232.679688 173.039062 C 220.59375 183.71875 204.832031 198.167969 192.75 208.859375 Z M 240.644531 139.25 C 244.425781 139.25 247.484375 142.308594 247.484375 146.085938 C 247.484375 149.863281 244.425781 152.921875 240.644531 152.921875 C 236.867188 152.921875 233.808594 149.863281 233.808594 146.085938 C 233.808594 142.308594 236.867188 139.25 240.644531 139.25 Z M 234.800781 177.742188 C 236.671875 179.777344 238.617188 181.914062 239.460938 182.894531 C 241.335938 185.050781 241.617188 187.285156 239.320312 189.441406 C 237.015625 191.597656 227.585938 198.222656 223.84375 200.671875 C 220.097656 203.117188 217.144531 201.320312 219.234375 198.875 C 221.320312 196.425781 225.210938 191.746094 226.789062 189.800781 C 227.492188 188.941406 226.632812 187.75 225.214844 186.53125 C 224.863281 186.226562 224.675781 185.828125 224.675781 185.355469 C 224.675781 184.890625 224.851562 184.480469 225.203125 184.167969 L 232.605469 177.621094 C 233.253906 177.066406 234.226562 177.113281 234.800781 177.742188 Z M 217.105469 155.199219 C 216.355469 155.441406 215.582031 155.695312 214.769531 155.976562 C 208.300781 158.203125 199.519531 161.664062 196.5625 162.953125 C 193.609375 164.25 194.90625 167.921875 197.933594 167.34375 C 199.433594 167.054688 206.621094 165.851562 213.488281 164.707031 C 213.933594 164.636719 214.285156 164.40625 214.53125 164.03125 C 216.144531 161.621094 217.625 159.421875 218.878906 157.5625 C 219.261719 156.996094 219.238281 156.292969 218.835938 155.75 C 218.429688 155.207031 217.753906 154.996094 217.105469 155.199219 Z M 217.105469 155.199219 " fill-opacity="1" fill-rule="evenodd"/></g></svg>